<?xml version="1.0" encoding="UTF-8" standalone="no"?>
<!-- Uploaded to: SVG Repo, www.svgrepo.com, Generator: SVG Repo Mixer Tools -->

<svg
   fill="#000000"
   version="1.1"
   id="Capa_1"
   width="735.77533"
   height="149.2852"
   viewBox="0 0 38.550029 7.8217982"
   xml:space="preserve"
   sodipodi:docname="ellipsis-svgrepo-com.svg"
   xmlns:inkscape="http://www.inkscape.org/namespaces/inkscape"
   xmlns:sodipodi="http://sodipodi.sourceforge.net/DTD/sodipodi-0.dtd"
   xmlns="http://www.w3.org/2000/svg"
   xmlns:svg="http://www.w3.org/2000/svg"><defs
   id="defs15"><linearGradient
     id="linearGradient2863"
     inkscape:swatch="solid"><stop
       style="stop-color:#000000;stop-opacity:1;"
       offset="0"
       id="stop2861" /></linearGradient></defs><sodipodi:namedview
   id="namedview13"
   pagecolor="#505050"
   bordercolor="#eeeeee"
   borderopacity="1"
   inkscape:showpageshadow="0"
   inkscape:pageopacity="0"
   inkscape:pagecheckerboard="0"
   inkscape:deskcolor="#505050"
   showgrid="false" />
<g
   id="g10"
   style="fill:#ffffff;fill-opacity:1;stroke-width:0.502992;stroke-dasharray:none;paint-order:markers fill stroke"
   transform="translate(-1.6826,-17.0471)">
	<g
   id="g8"
   style="fill:#ffffff;fill-opacity:1;stroke-width:0.502992;stroke-dasharray:none;paint-order:markers fill stroke">
		
		
		
	</g>
<path
   style="fill:#ffffff;fill-opacity:1;stroke-width:0.352094;stroke-dasharray:none;paint-order:markers fill stroke"
   d="m 24.88205,20.9566 c 0,2.1637 -1.7563,3.9123 -3.9242,3.9123 -2.1679,0 -3.9249,-1.7486 -3.9249,-3.9123 0,-2.1574 1.7577,-3.9095 3.9249,-3.9095 2.1686,0 3.9242,1.7521 3.9242,3.9095 z"
   id="path4" /><path
   style="fill:#ffffff;fill-opacity:1;stroke-width:0.352094;stroke-dasharray:none;paint-order:markers fill stroke"
   d="m 9.5319,20.9566 c 0,2.1637 -1.7563,3.9123 -3.9249,3.9123 -2.1679,-7e-4 -3.9249,-1.7493 -3.9249,-3.9123 0,-2.1574 1.7577,-3.9095 3.9249,-3.9095 2.1686,0 3.9249,1.7521 3.9249,3.9095 z"
   id="path2" /><path
   style="fill:#ffffff;fill-opacity:1;stroke-width:0.352094;stroke-dasharray:none;paint-order:markers fill stroke"
   d="m 40.23305,20.9566 c 0,2.1637 -1.7563,3.9123 -3.9249,3.9123 -2.1679,0 -3.9242,-1.7486 -3.9242,-3.9123 0,-2.1574 1.7577,-3.9095 3.9242,-3.9095 2.1686,0 3.9249,1.7521 3.9249,3.9095 z"
   id="path6" /></g>
</svg>
