<?xml version="1.0" encoding="UTF-8" standalone="no"?>
<!-- Created with Inkscape (http://www.inkscape.org/) by Toomai Glittershine for SmashWiki -->

<svg
   id="svg2"
   version="1.1"
   height="180"
   width="178.68797"
   viewBox="0 0 178.68797 180"
   xmlns="http://www.w3.org/2000/svg"
   xmlns:svg="http://www.w3.org/2000/svg"
   xmlns:rdf="http://www.w3.org/1999/02/22-rdf-syntax-ns#"
   xmlns:cc="http://creativecommons.org/ns#"
   xmlns:dc="http://purl.org/dc/elements/1.1/">
  <defs
     id="defs14" />
  <metadata
     id="metadata7">
    <rdf:RDF>
      <cc:Work
         rdf:about="">
        <dc:format>image/svg+xml</dc:format>
        <dc:type
           rdf:resource="http://purl.org/dc/dcmitype/StillImage" />
        <dc:title />
      </cc:Work>
    </rdf:RDF>
  </metadata>
  <path
     id="mainsymbolpath"
     style="opacity:1;fill:#000000;fill-opacity:1;fill-rule:nonzero;stroke:none"
     d="m 115.88414,89.99605 c 0,14.65791 -11.88258,26.5405 -26.54049,26.5405 -14.65792,0 -26.5405,-11.88259 -26.5405,-26.5405 0,-14.65791 11.88258,-26.5405 26.5405,-26.5405 14.65791,0 26.54049,11.88259 26.54049,26.5405 z M 89.33248,0 C 43.363946,0 5.4461263,34.45551 3.2592774e-7,78.95141 H 48.360613 C 53.219582,60.8757 69.72128,47.57801 89.33248,47.57801 c 19.6112,0 36.13066,13.29769 40.99488,31.3734 h 48.36062 C 173.23889,34.45551 135.30101,0 89.33248,0 Z M 3.2592774e-7,101.04859 C 5.4461263,145.54449 43.363946,180 89.33248,180 c 45.96853,0 83.90641,-34.45551 89.3555,-78.95141 h -48.36062 c -4.86422,18.07571 -21.38368,31.37341 -40.99488,31.37341 -19.6112,0 -36.112898,-13.2977 -40.971867,-31.37341 z" />
</svg>
